<svg xmlns="http://www.w3.org/2000/svg" version="1.1" xmlns:xlink="http://www.w3.org/1999/xlink" width="512" height="512" x="0" y="0" viewBox="0 0 64 64" style="enable-background:new 0 0 512 512" xml:space="preserve" class=""><g><path d="M58 7H6a5.006 5.006 0 0 0-5 5v31a5.006 5.006 0 0 0 5 5h19v2.528a6.2 6.2 0 0 1-3.447 5.577A1 1 0 0 0 22 58h20a1 1 0 0 0 .447-1.9A6.2 6.2 0 0 1 39 50.528V48h19a5.006 5.006 0 0 0 5-5V12a5.006 5.006 0 0 0-5-5zM39.072 56H24.928A8.2 8.2 0 0 0 27 50.528V48h10v2.528A8.2 8.2 0 0 0 39.072 56zM58 46H6a3 3 0 0 1-3-3v-1h49v-2H3V12a3 3 0 0 1 3-3h52a3 3 0 0 1 3 3v28h-7v2h7v1a3 3 0 0 1-3 3z" fill="#c7ab84" opacity="1" data-original="#000000" class=""></path><path d="M16 11a9 9 0 1 0 9 9 9.01 9.01 0 0 0-9-9zm-3.975 14.755a3.981 3.981 0 0 1 7.95 0 6.968 6.968 0 0 1-7.95 0zm9.653-1.678a5.992 5.992 0 0 0-11.356 0 7 7 0 1 1 11.356 0z" fill="#c7ab84" opacity="1" data-original="#000000" class=""></path><path d="M19 17a3 3 0 1 0-3 3 3 3 0 0 0 3-3zm-3 1a1 1 0 1 1 1-1 1 1 0 0 1-1 1zM41 10h15v2H41zM41 16h10v2H41zM53 16h3v2h-3zM41 13h11v2H41zM54 13h2v2h-2zM41 20h15v2H41zM41 26h10v2H41zM41 23h11v2H41zM41 30h15v2H41zM41 36h10v2H41zM41 33h11v2H41zM39.336 29.253l-.936.832A1.006 1.006 0 0 0 38 30h-7a1 1 0 0 0-1 1v7a1 1 0 0 0 1 1h7a1 1 0 0 0 1-1v-5.774l1.664-1.479zM36.245 32 32 35.774V32zM37 37h-3.37L37 34zM38.4 20.085A1.006 1.006 0 0 0 38 20h-7a1 1 0 0 0-1 1v7a1 1 0 0 0 1 1h7a1 1 0 0 0 1-1v-5.774l1.664-1.479-1.328-1.494zM36.245 22 32 25.774V22zM37 27h-3.37L37 24zM38.4 10.085A1.006 1.006 0 0 0 38 10h-7a1 1 0 0 0-1 1v7a1 1 0 0 0 1 1h7a1 1 0 0 0 1-1v-5.774l1.664-1.479-1.328-1.494zM36.245 12 32 15.774V12zM37 17h-3.37L37 14zM8 31h14v2H8zM8 34h10v2H8zM20 34h2v2h-2z" fill="#c7ab84" opacity="1" data-original="#000000" class=""></path></g></svg>