<svg xmlns="http://www.w3.org/2000/svg" version="1.1" xmlns:xlink="http://www.w3.org/1999/xlink" width="512" height="512" x="0" y="0" viewBox="0 0 96 96" style="enable-background:new 0 0 512 512" xml:space="preserve" class=""><g><g data-name="Check In"><path d="M23.91 28a1 1 0 0 0 .1 1.41 5.32 5.32 0 0 0 7 0 1 1 0 0 0-1.31-1.51 3.41 3.41 0 0 1-4.36 0 1 1 0 0 0-1.43.1ZM32.29 20.44a1 1 0 0 0-1.52.85v.48a1 1 0 0 0 2 0v-.48a1 1 0 0 0-.48-.85ZM30.68 19.71h2.18a1 1 0 0 0 0-2h-2.18a1 1 0 0 0 0 2ZM24.23 21.77v-.48a1 1 0 0 0-2 0v.48a1 1 0 0 0 2 0ZM25.32 18.71a1 1 0 0 0-1-1h-2.18a1 1 0 0 0 0 2h2.18a1 1 0 0 0 1-1Z" fill="#c7ab84" opacity="1" data-original="#000000" class=""></path><path d="M93.15 61.17h-2.71c.23-.89.16-1 .16-7.82a12.19 12.19 0 0 0-12-12.15h-1.22v-.92a10.52 10.52 0 0 0 4.62-4.6 8.42 8.42 0 0 0 4.16-7.26v-5.28a13.67 13.67 0 0 0-8.45-12.64c-9.56-3.9-18.91 3.69-18.91 13v4.92a8.44 8.44 0 0 0 4.45 7.41 10.57 10.57 0 0 0 4.5 4.43v1A16.17 16.17 0 0 0 57.58 47l-8.23 9.85a5.56 5.56 0 0 0-1.16-1.67l-.85-4.78a15.58 15.58 0 0 0-7.14-10.6 15.59 15.59 0 0 0-7.4-2.64V34.5a11.81 11.81 0 0 0 6.44-9.41h.33a3.32 3.32 0 0 0 3.1-4.51v-5.3a15.28 15.28 0 0 0-30.56 0c0 7.49 0 7.11.13 7.39a3.32 3.32 0 0 0 3.19 2.42h.33a11.81 11.81 0 0 0 6.44 9.41v2.66a15.5 15.5 0 0 0-7.38 2.63 15.5 15.5 0 0 0-7.15 10.59L6.8 55a5.27 5.27 0 0 0-1.35 6.14c-2.59 0-2.94 0-3.46.14A2.93 2.93 0 0 0 0 63.5a5 5 0 0 0 0 1.08 2.92 2.92 0 0 0 2.91 2.9H5.4V95a1 1 0 0 0 1 1h83.2a1 1 0 0 0 1-1V67.48h2.55a2.9 2.9 0 0 0 2.9-2.9v-.5a2.91 2.91 0 0 0-2.9-2.91ZM60.8 28.43v-4.92c0-6.38 5.22-12 11.67-12a11.64 11.64 0 0 1 11.67 11.63v5.28A6.76 6.76 0 0 1 77.22 35h-9.5a6.77 6.77 0 0 1-6.92-6.57Zm5.75 8.51c.87.11.44.08 10.67.08a9.6 9.6 0 0 0 1.42-.11A8.6 8.6 0 0 1 76 38.72a1 1 0 0 0-.61.92v1.53c-4.34 0-5.37-.05-5.63 0v-1.5c-.01-1.21-1.28-.77-3.21-2.73Zm-26.91 4.88a13.58 13.58 0 0 1 5.73 8.92l.54 3c-1.14-.39-1.54-.29-6.27-.29Zm4.48 13.66c3.76 0 5.06 5.06 2.19 5.69H31.18v-5.69Zm-6.48-5.43h-3.5v-1.64h3.5Zm0-9.43v5.79h-4.5a1 1 0 0 0-1 1v3.64a1 1 0 0 0 1 1h4.5v1.43h-7.46a1 1 0 0 0-1 1v.73h-.68v-5.06l4.12-5.92c.26-.36.18-.32.18-5a13.55 13.55 0 0 1 4.84 1.39Zm-6.84.12v2.6l-3.3 4.75-3.3-4.75v-2.6a6.21 6.21 0 0 0 6.6 0Zm-6.6-2.61v-2.84a11.76 11.76 0 0 0 6.6 0v2.84a4.27 4.27 0 0 1-6.6 0Zm3.69 19.08a2.53 2.53 0 0 1 1.29.37v3.59h-3.53a1.17 1.17 0 0 1-1-.34 1.41 1.41 0 0 1-.25-1.76l.36-.62a2.6 2.6 0 0 1 1.74-1.2 6.66 6.66 0 0 1 1.39-.04Zm11.68-34.12h-.28v-2.65h.28a1.34 1.34 0 0 1 1.32 1.33 1.32 1.32 0 0 1-1.32 1.32Zm-23.86 0h-.28a1.33 1.33 0 0 1 0-2.65h.28Zm1.45-9.74a1 1 0 0 0-1.45.89v4.2a3.59 3.59 0 0 0-1.6.27v-3.43a13.28 13.28 0 0 1 26.56 0v3.35a3.69 3.69 0 0 0-1.38-.19v-4.33a1 1 0 0 0-1.51-.86 1 1 0 0 0-.49.86v1.1c-1.34-.8-2.1-.61-6.43-.61-3.58 0-6.93-2.62-6.93-6.31V5.18a1 1 0 0 0-2 0v7a4.43 4.43 0 0 1-2.6 4l-1.62.82v-2.76a1 1 0 0 0-.55-.89Zm.61 11.74c-.08-.75-.06-.86-.06-5.95L20.16 18a6.46 6.46 0 0 0 3.65-4.63 9.29 9.29 0 0 0 7.05 3.21h4.25a2.18 2.18 0 0 1 2.15 1.84c.06.13 0 1.78 0 2.75a34.9 34.9 0 0 1-.06 3.9 9.8 9.8 0 0 1-19.46 0Zm-.42 15.53a15.37 15.37 0 0 1 1.74-.75 13.21 13.21 0 0 1 3.11-.69v4.48c0 .48 0 .31 4.3 6.49v5.06h-.85v-.73a1 1 0 0 0-1-1h-7.3ZM9.64 50.73a13.52 13.52 0 0 1 5.71-8.9v11.65c-4.72 0-5.24-.08-6.27.24Zm1.07 4.75h12.94v1.16a6.11 6.11 0 0 0-1 1.42 3.36 3.36 0 0 0-.18 3.11h-14c-2.85-.6-1.47-5.69 2.24-5.69Zm-8.2 9.93a.91.91 0 0 1-.51-.83v-.5a.91.91 0 0 1 .4-.75c.36-.22-3.41-.15 58.61-.15v2.3c-62.62 0-58.2.04-58.5-.07ZM59 61.17 61 59v2.17ZM50.47 94H25.05v-9.58a1.81 1.81 0 0 1 1.8-1.8h21.82a1.81 1.81 0 0 1 1.8 1.8ZM34.29 80.62l.38-1.49a1.3 1.3 0 0 1 1.26-1h3.66a1.3 1.3 0 0 1 1.26 1l.38 1.49ZM55.94 94h-3.47v-9.58a3.81 3.81 0 0 0-3.8-3.8h-5.38l-.5-2a3.31 3.31 0 0 0-3.15-2.5h-3.71a3.29 3.29 0 0 0-3 1.92 14.24 14.24 0 0 0-.71 2.56h-5.37a3.8 3.8 0 0 0-3.8 3.8V94H7.4V67.48H61v.72a2.27 2.27 0 0 0-.8 1.73v2.56a2.26 2.26 0 0 0 1.07 1.92Zm14.63 0 .76-2.75V94Zm2.79 0-.1-8.12a1 1 0 0 0-2-.26L68.5 94H58l5.2-19.25h18.54L81.92 94ZM83 72.49a.26.26 0 0 1-.26.26H62.42a.26.26 0 0 1-.26-.26v-2.56a.25.25 0 0 1 .26-.26h20.31a.26.26 0 0 1 .26.26Zm-.81-18v13.18H63V54.46a1 1 0 0 0-2 0V56l-4.68 5.13-6.88-.13a3.94 3.94 0 0 0 .44-1.71l9.23-11a14.36 14.36 0 0 1 10.64-5.14c.39 0 1.14 0 8.79.06A10.18 10.18 0 0 1 88.6 53.35v6.49a3.94 3.94 0 0 1-1.83 3.33 9.44 9.44 0 0 1-2.57.93v-9.64a1 1 0 0 0-2 0ZM88.6 94h-4.68l-.18-19.5a2.25 2.25 0 0 0 1.25-2v-2.57a2.29 2.29 0 0 0-.81-1.74v-.71h4.42Zm5.45-29.42a.9.9 0 0 1-.55.83c-.29.1.2.07-7 .07a5.86 5.86 0 0 0 3-2.3c3.91 0 3.76 0 4.08.15a.89.89 0 0 1 .33.4c.15.19.14.27.14.85Z" fill="#c7ab84" opacity="1" data-original="#000000" class=""></path><path d="M47.13 84.26h-4.35a1.57 1.57 0 0 0-1.57 1.57v2.1a1.57 1.57 0 0 0 1.57 1.58h4.35a1.58 1.58 0 0 0 1.58-1.58v-2.1a1.57 1.57 0 0 0-1.58-1.57Zm-.42 3.25h-3.5v-1.25h3.5Z" fill="#c7ab84" opacity="1" data-original="#000000" class=""></path></g></g></svg>